<svg width="20" height="20" viewBox="0 0 20 20" fill="none" xmlns="http://www.w3.org/2000/svg">
<path id="Vector" d="M10 11.0717C8.50827 11.095 7.06834 10.525 5.99679 9.48697C4.92523 8.44894 4.30977 7.02788 4.28571 5.53621C4.30977 4.04454 4.92523 2.62348 5.99679 1.58545C7.06834 0.547418 8.50827 -0.0226102 10 0.000687034C11.4917 -0.0226102 12.9317 0.547418 14.0032 1.58545C15.0748 2.62348 15.6902 4.04454 15.7143 5.53621C15.6902 7.02788 15.0748 8.44894 14.0032 9.48697C12.9317 10.525 11.4917 11.095 10 11.0717ZM0 20C0 15.798 5.37071 12.8574 10.01 12.8574C14.6286 12.8574 20 15.8001 20 19.9957C20 19.9993 0 20.0014 0 20Z" fill="white"/>
</svg>
